<mxfile host="app.diagrams.net" agent="Mozilla/5.0 (Windows NT 10.0; Win64; x64) AppleWebKit/537.36 (KHTML, like Gecko) Chrome/131.0.0.0 Safari/537.36 Edg/131.0.0.0" version="24.8.9">
  <diagram name="หน้า-1" id="YWvn5wqR47MSNie0i1D5">
    <mxGraphModel dx="1368" dy="679" grid="1" gridSize="10" guides="1" tooltips="1" connect="1" arrows="1" fold="1" page="1" pageScale="1" pageWidth="827" pageHeight="1169" math="0" shadow="0">
      <root>
        <mxCell id="0" />
        <mxCell id="1" parent="0" />
        <mxCell id="XibK821LJl4Agawm5-KE-8" value="" style="edgeStyle=orthogonalEdgeStyle;rounded=0;orthogonalLoop=1;jettySize=auto;html=1;entryX=0.495;entryY=0.163;entryDx=0;entryDy=0;entryPerimeter=0;" edge="1" parent="1" source="XibK821LJl4Agawm5-KE-1" target="XibK821LJl4Agawm5-KE-6">
          <mxGeometry relative="1" as="geometry" />
        </mxCell>
        <mxCell id="XibK821LJl4Agawm5-KE-1" value="Start" style="ellipse;whiteSpace=wrap;html=1;" vertex="1" parent="1">
          <mxGeometry x="354" y="100" width="120" height="80" as="geometry" />
        </mxCell>
        <mxCell id="XibK821LJl4Agawm5-KE-11" value="" style="edgeStyle=orthogonalEdgeStyle;rounded=0;orthogonalLoop=1;jettySize=auto;html=1;" edge="1" parent="1" source="XibK821LJl4Agawm5-KE-4" target="XibK821LJl4Agawm5-KE-5">
          <mxGeometry relative="1" as="geometry" />
        </mxCell>
        <mxCell id="XibK821LJl4Agawm5-KE-4" value="แสดง ชื่อ นามสกุล และข้อ&lt;div&gt;มูลระจำตัว&amp;nbsp;&lt;/div&gt;" style="shape=display;whiteSpace=wrap;html=1;" vertex="1" parent="1">
          <mxGeometry x="341" y="490" width="146" height="70" as="geometry" />
        </mxCell>
        <mxCell id="XibK821LJl4Agawm5-KE-5" value="End" style="ellipse;whiteSpace=wrap;html=1;" vertex="1" parent="1">
          <mxGeometry x="354" y="620" width="120" height="80" as="geometry" />
        </mxCell>
        <mxCell id="XibK821LJl4Agawm5-KE-9" value="" style="edgeStyle=orthogonalEdgeStyle;rounded=0;orthogonalLoop=1;jettySize=auto;html=1;entryX=0.505;entryY=0.177;entryDx=0;entryDy=0;entryPerimeter=0;" edge="1" parent="1" source="XibK821LJl4Agawm5-KE-6" target="XibK821LJl4Agawm5-KE-7">
          <mxGeometry relative="1" as="geometry" />
        </mxCell>
        <mxCell id="XibK821LJl4Agawm5-KE-6" value="พิมพ์FirstName" style="shape=manualInput;whiteSpace=wrap;html=1;" vertex="1" parent="1">
          <mxGeometry x="344" y="220" width="140" height="80" as="geometry" />
        </mxCell>
        <mxCell id="XibK821LJl4Agawm5-KE-10" value="" style="edgeStyle=orthogonalEdgeStyle;rounded=0;orthogonalLoop=1;jettySize=auto;html=1;" edge="1" parent="1" source="XibK821LJl4Agawm5-KE-7" target="XibK821LJl4Agawm5-KE-4">
          <mxGeometry relative="1" as="geometry" />
        </mxCell>
        <mxCell id="XibK821LJl4Agawm5-KE-7" value="พิมพ์LastName" style="shape=manualInput;whiteSpace=wrap;html=1;" vertex="1" parent="1">
          <mxGeometry x="344" y="350" width="140" height="80" as="geometry" />
        </mxCell>
      </root>
    </mxGraphModel>
  </diagram>
</mxfile>
